<svg width="171" height="37" viewBox="0 0 171 37" fill="none" xmlns="http://www.w3.org/2000/svg">
<g clip-path="url(#clip0_114_20)">
<path d="M15.0547 31.302C21.2393 31.302 27.2421 26.0107 28.7268 19.2586C29.5112 15.6835 28.8531 12.3335 26.8743 9.79926C25.9887 8.6762 24.8483 7.76918 23.5429 7.14956C22.2375 6.52994 20.8027 6.21464 19.3513 6.22846C19.0057 6.22846 18.6511 6.24577 18.2988 6.2804L14.175 6.68293L11.6179 9.63479L17.9354 9.12839C18.157 9.11107 18.3786 9.10242 18.6002 9.10242C19.735 9.09124 20.8567 9.3413 21.8741 9.83233C22.8916 10.3234 23.7764 11.0416 24.4568 11.9288C25.9303 13.8548 26.42 16.402 25.8372 19.0985C24.7116 24.3249 19.912 28.5752 15.1367 28.5752C14.9151 28.5752 14.7157 28.5752 14.5074 28.5514L2.51282 27.5905L5.77461 7.95976L3.15986 10.5848L0 29.8737L14.0642 31.2457C14.3932 31.2808 14.7238 31.2996 15.0547 31.302Z" fill="#3CB4E5"/>
<path d="M32.3099 4.80868C29.7062 1.70749 25.9392 0 21.7024 0C20.9355 0.0009342 20.1697 0.0566261 19.4112 0.166635L8.96327 1.68152L4.97467 25.212L7.63373 22.9029L10.8778 4.09885L19.0766 3.05791C19.6372 2.9866 20.2019 2.95046 20.7673 2.9497C24.3792 2.9497 27.5723 4.42346 29.7594 7.09832C32.3542 10.2709 33.2051 14.5754 32.1547 19.2174C30.2469 27.6575 22.735 34.284 15.0547 34.284C14.5361 34.284 14.018 34.2515 13.5036 34.1866L6.14244 33.2539L3.87115 35.5327L13.0338 36.8572C13.7309 36.9572 14.4344 37.0072 15.1389 37.0065C24.1554 37.0065 32.999 29.2698 35.2703 19.3949C36.5223 13.8634 35.4498 8.55045 32.3099 4.80868Z" fill="#3CB4E5"/>
<path d="M55.1645 25.0843V13.015C57.2503 12.172 59.4818 11.7261 61.739 11.7014V13.9175C60.3525 13.9411 58.9738 14.1279 57.633 14.4737V25.0779L55.1645 25.0843Z" fill="white"/>
<path d="M63.4697 25.0865V12.1234L65.9382 11.7014V25.0865H63.4697Z" fill="white"/>
<path d="M67.6931 13.8157L68.5595 11.7013H69.5811V11.2685C69.5811 7.99204 71.0775 6.35452 74.0704 6.35596C74.5674 6.35527 75.0625 6.41562 75.544 6.53559L74.9346 8.54389C74.8106 8.53307 74.6621 8.52874 74.5446 8.52874C74.2291 8.52273 73.9135 8.54009 73.6007 8.58068C73.3356 8.63171 73.0825 8.73001 72.8539 8.87067C72.5482 9.05959 72.3302 9.35786 72.2468 9.70169C72.1078 10.2147 72.0451 10.7446 72.0606 11.275V11.7078H75.5462V13.8222H72.054V25.0908H69.5811V13.8157H67.6931Z" fill="white"/>
<path d="M74.671 13.8158V11.7015H77.0198V8.42281L79.4905 7.98999V11.6928H83.0803V13.8071H79.4905V21.5937C79.4905 22.6195 80.1553 23.1323 81.4848 23.1323H81.5114C82.0615 23.1484 82.6054 23.015 83.0825 22.7471L82.3202 25.171C81.9647 25.255 81.6002 25.2979 81.2344 25.2986H81.1679C80.8175 25.296 80.4684 25.2568 80.1265 25.1818C79.668 25.076 79.2223 24.9229 78.7969 24.7251C78.2539 24.4732 77.8075 24.0585 77.5228 23.5414C77.1677 22.9006 76.994 22.179 77.0198 21.4508V13.8158H74.671Z" fill="white"/>
<path d="M89.9163 25.0844V13.0259C91.6998 12.1464 93.6685 11.6841 95.6665 11.6755C97.3757 11.6755 98.7148 12.1084 99.6839 12.974C100.653 13.8397 101.138 15.0436 101.138 16.5859V25.0823H98.6158V16.3998C98.6158 15.6251 98.4127 15.0133 98.0065 14.5646C97.6002 14.1159 96.7877 13.8916 95.569 13.8916C94.4915 13.8881 93.42 14.0495 92.3936 14.3699V25.0844H89.9163Z" fill="white"/>
<path d="M142.57 25.1039C141.761 25.2507 140.94 25.3231 140.117 25.3203H140.037C139.296 25.3271 138.558 25.2287 137.846 25.0281C137.143 24.8191 136.482 24.4941 135.891 24.0672C135.198 23.5368 134.678 22.821 134.394 22.007C134.003 20.9317 133.817 19.7955 133.846 18.6548C133.846 14.0192 135.831 11.7022 139.8 11.7036H139.827C141.631 11.7036 143.072 12.2807 144.15 13.4349C145.228 14.5891 145.768 16.1307 145.768 18.0596C145.768 18.6894 145.741 19.291 145.688 19.8688H136.368C136.663 22.1296 137.931 23.26 140.17 23.26C141.213 23.2715 142.252 23.1441 143.259 22.8813L142.57 25.1039ZM136.328 17.6982H143.259C143.229 17.2729 143.154 16.8517 143.038 16.4409C142.907 16.0152 142.725 15.6062 142.495 15.2225C142.246 14.8047 141.883 14.463 141.447 14.2356C140.941 13.9805 140.378 13.8547 139.809 13.8699C138.673 13.8699 137.839 14.1585 137.307 14.7356C136.776 15.3127 136.449 16.3002 136.328 17.6982Z" fill="white"/>
<path d="M147.288 15.6293C147.279 15.1098 147.381 14.5942 147.587 14.1151C147.793 13.636 148.098 13.2039 148.484 12.8462C149.281 12.083 150.497 11.7014 152.134 11.7014C153.39 11.7103 154.626 12.0068 155.744 12.5671L155.15 14.4087C154.285 14.0648 153.362 13.8813 152.429 13.8677C150.643 13.8677 149.75 14.4289 149.75 15.5514C149.75 15.9193 149.987 16.2259 150.461 16.4711C151.009 16.7452 151.584 16.9628 152.178 17.1204C152.86 17.3085 153.531 17.5318 154.188 17.7891C154.876 18.0636 155.472 18.52 155.91 19.107C156.453 19.868 156.7 20.7933 156.607 21.7164C156.514 22.6396 156.087 23.5 155.402 24.143C154.587 24.9134 153.323 25.2986 151.611 25.2986C150.253 25.3188 148.912 25 147.715 24.3723L148.292 22.4549C149.282 22.9034 150.36 23.1346 151.451 23.1323H151.505C152.366 23.1323 153.024 22.9801 153.479 22.6757C153.685 22.5548 153.856 22.3842 153.975 22.1804C154.094 21.9765 154.157 21.7461 154.159 21.5114C154.162 21.2545 154.099 21.0009 153.975 20.774C153.852 20.5472 153.672 20.3542 153.452 20.2129C152.931 19.857 152.351 19.592 151.737 19.4295C151.061 19.2448 150.386 19.0392 149.712 18.8127C149.047 18.5912 148.454 18.2005 147.995 17.6809C147.506 17.1065 147.254 16.3752 147.288 15.6293Z" fill="white"/>
<path d="M160.838 25.0844H158.369V7.31043L160.838 6.88843V25.0844Z" fill="white"/>
<path d="M171 25.0865L164.359 17.2805L170.22 11.7014H166.867L161.27 17.0771L167.712 25.0865H171Z" fill="#3CB4E5"/>
<path d="M114.056 15.1012C113.965 14.7254 113.828 14.362 113.646 14.0191C113.431 13.5824 113.13 13.1912 112.76 12.8678C112.273 12.4799 111.711 12.1928 111.107 12.0238C110.281 11.7728 109.419 11.653 108.554 11.6689C108.05 11.6677 107.546 11.7104 107.05 11.7966C106.496 11.9092 105.963 12.1056 105.472 12.3787C104.91 12.674 104.412 13.074 104.007 13.556C103.534 14.1653 103.183 14.8562 102.972 15.5924C102.673 16.5855 102.53 17.6174 102.549 18.6525C102.519 19.7912 102.707 20.9253 103.105 21.9961C103.399 22.8111 103.926 23.5268 104.623 24.0585C105.215 24.4927 105.881 24.8196 106.591 25.0237C107.299 25.2128 108.03 25.306 108.765 25.3007C109.267 25.3012 109.768 25.2658 110.265 25.1946L111.014 22.799C110.285 23.0188 109.527 23.1297 108.765 23.1279C108.291 23.1346 107.818 23.083 107.358 22.9742C106.93 22.8574 106.532 22.6555 106.188 22.3813C105.764 22.0207 105.461 21.5431 105.321 21.0114C105.104 20.2436 105.004 19.4488 105.024 18.6525C105.004 17.7963 105.104 16.9415 105.321 16.1118C105.454 15.5503 105.75 15.0384 106.174 14.638C106.497 14.3582 106.874 14.1441 107.282 14.0083C107.699 13.889 108.131 13.8328 108.565 13.8417C110.644 13.8417 111.678 14.4974 111.667 15.8088V25.16C111.667 27.1618 110.101 28.562 107.858 28.562C106.811 28.5733 105.768 28.4452 104.756 28.1811L105.445 30.4167C106.257 30.5633 107.081 30.6358 107.907 30.6331H107.987C108.73 30.64 109.471 30.5416 110.185 30.3409C110.89 30.1317 111.553 29.8052 112.144 29.3757C112.779 28.927 113.281 28.2381 113.648 27.309C114.016 26.3806 114.138 25.2596 114.138 23.9481V15.9409C114.139 15.659 114.112 15.3778 114.056 15.1012Z" fill="white"/>
<path d="M129.645 7.33851V21.1608C129.654 22.4679 128.62 23.1222 126.543 23.1236C126.111 23.1314 125.681 23.0752 125.266 22.957C124.862 22.8212 124.489 22.607 124.172 22.3272C123.747 21.9298 123.452 21.4197 123.321 20.8599C123.105 20.0323 123.005 19.1797 123.026 18.3258C123.006 17.5294 123.107 16.7345 123.325 15.9669C123.465 15.4367 123.766 14.9605 124.189 14.6013C124.532 14.328 124.929 14.1275 125.355 14.0127C125.815 13.9027 126.287 13.851 126.76 13.859C127.52 13.8601 128.276 13.9732 129.002 14.1944L128.256 11.8139C127.761 11.7446 127.262 11.7099 126.762 11.71C126.029 11.7038 125.299 11.797 124.593 11.987C123.885 12.1896 123.221 12.5151 122.632 12.9479C121.936 13.4779 121.411 14.1914 121.118 15.0038C120.721 16.0711 120.533 17.2015 120.562 18.3366C120.544 19.3688 120.687 20.3977 120.985 21.388C121.195 22.1219 121.544 22.8106 122.016 23.4179C122.42 23.8981 122.917 24.2965 123.478 24.5909C123.968 24.8632 124.498 25.0589 125.049 25.1709C125.544 25.2587 126.046 25.3022 126.549 25.3007C127.412 25.3154 128.271 25.1956 129.095 24.9458C129.697 24.7764 130.258 24.4901 130.744 24.104C131.113 23.7816 131.414 23.392 131.63 22.957C131.81 22.6134 131.947 22.2502 132.038 21.8749C132.096 21.5971 132.124 21.3144 132.124 21.0309V6.9165L129.645 7.33851Z" fill="white"/>
<path d="M50.5311 7.33851V21.1608C50.5399 22.4679 49.5059 23.1222 47.4288 23.1236C46.9965 23.1313 46.5654 23.0751 46.1503 22.957C45.7466 22.8206 45.3752 22.6064 45.0578 22.3272C44.6335 21.9298 44.3377 21.4197 44.2069 20.8599C43.9908 20.033 43.8917 19.1811 43.9122 18.3279C43.892 17.5308 43.9928 16.7351 44.2114 15.9669C44.3514 15.4373 44.6518 14.9613 45.0733 14.6013C45.4167 14.3283 45.8144 14.1279 46.2411 14.0127C46.7 13.9027 47.1714 13.851 47.6438 13.859C48.4072 13.8595 49.1662 13.9726 49.8951 14.1944L49.1484 11.8139C48.653 11.7446 48.1531 11.7099 47.6526 11.71C46.9206 11.7037 46.1912 11.7969 45.4855 11.987C44.7751 12.1857 44.1071 12.5075 43.5134 12.9371C42.8188 13.4678 42.2938 14.181 41.9999 14.993C41.605 16.0607 41.4172 17.1909 41.4459 18.3258C41.4278 19.358 41.5706 20.3869 41.8692 21.3772C42.0789 22.1111 42.4285 22.7998 42.8996 23.4071C43.304 23.8868 43.7999 24.2851 44.3598 24.5801C44.8502 24.8521 45.381 25.0478 45.9331 25.1601C46.4281 25.2479 46.9302 25.2914 47.4333 25.2899C48.2959 25.3046 49.1554 25.1848 49.9793 24.935C50.5813 24.7656 51.142 24.4793 51.6279 24.0931C51.9931 23.7699 52.2904 23.3803 52.5032 22.9462C52.6843 22.603 52.8219 22.2397 52.9132 21.8641C52.9706 21.5863 52.9996 21.3035 52.9996 21.0201V6.9165L50.5311 7.33851Z" fill="white"/>
<path d="M85.2806 25.0865V12.1234L87.7491 11.7014V25.0865H85.2806Z" fill="white"/>
<path d="M86.5149 9.86837C87.3495 9.86837 88.0261 9.20757 88.0261 8.39244C88.0261 7.5773 87.3495 6.9165 86.5149 6.9165C85.6802 6.9165 85.0036 7.5773 85.0036 8.39244C85.0036 9.20757 85.6802 9.86837 86.5149 9.86837Z" fill="white"/>
<path d="M64.7039 9.86837C65.5385 9.86837 66.2151 9.20757 66.2151 8.39244C66.2151 7.5773 65.5385 6.9165 64.7039 6.9165C63.8693 6.9165 63.1927 7.5773 63.1927 8.39244C63.1927 9.20757 63.8693 9.86837 64.7039 9.86837Z" fill="white"/>
</g>
<defs>
<clipPath id="clip0_114_20">
<rect width="171" height="37" fill="white"/>
</clipPath>
</defs>
</svg>
